<svg version="1.1" xmlns="http://www.w3.org/2000/svg" viewBox="0 0 1171.4112586852164 769.5" width="2342.8225173704327" height="1539">
  <!-- svg-source:excalidraw -->
  
  <defs>
    <style class="style-fonts">
      @font-face {
        font-family: "Virgil";
        src: url("https://excalidraw.com/Virgil.woff2");
      }
      @font-face {
        font-family: "Cascadia";
        src: url("https://excalidraw.com/Cascadia.woff2");
      }
    </style>
    
  </defs>
  <rect x="0" y="0" width="1171.4112586852164" height="769.5" fill="#ffffff"></rect><g stroke-linecap="round" transform="translate(38 91.5) rotate(0 27 28)"><path d="M22.67 0.83 C27.94 -0.53, 35.29 1.34, 40.35 4.38 C45.41 7.43, 51.12 13.53, 53.04 19.13 C54.96 24.73, 53.95 32.39, 51.86 37.98 C49.77 43.57, 45.42 49.8, 40.48 52.67 C35.54 55.53, 28.03 56.4, 22.22 55.19 C16.41 53.99, 9.39 50.11, 5.61 45.43 C1.82 40.76, -0.52 33.02, -0.48 27.15 C-0.43 21.29, 1.53 14.8, 5.89 10.23 C10.25 5.67, 22.05 1.36, 25.68 -0.24 C29.32 -1.83, 27.9 0.17, 27.69 0.66 M30.21 0.1 C35.73 0.31, 42.68 3.38, 46.72 7.33 C50.75 11.29, 54.08 17.8, 54.43 23.83 C54.79 29.87, 52.12 38.51, 48.84 43.55 C45.56 48.59, 40.09 52.25, 34.75 54.05 C29.42 55.85, 22.41 56.77, 16.85 54.35 C11.28 51.93, 3.9 45.23, 1.35 39.55 C-1.2 33.87, 0.13 26.03, 1.56 20.26 C2.99 14.49, 5.49 8.24, 9.94 4.91 C14.4 1.59, 25.26 0.95, 28.29 0.31 C31.32 -0.34, 27.93 0.84, 28.12 1.03" stroke="#1e1e1e" stroke-width="1" fill="none"></path></g><g stroke-linecap="round" transform="translate(10 146.5) rotate(0 52.5 30.5)"><path d="M15.25 0 M15.25 0 C37.56 1.6, 55.45 -0.26, 89.75 0 M15.25 0 C40.9 0.14, 67.13 0.06, 89.75 0 M89.75 0 C100.43 0.73, 103.11 7.03, 105 15.25 M89.75 0 C101.94 -1.89, 106.46 4.34, 105 15.25 M105 15.25 C103.34 22.33, 103.64 31.38, 105 45.75 M105 15.25 C104.65 23.81, 104.68 32.9, 105 45.75 M105 45.75 C104.01 57.58, 100.6 60.49, 89.75 61 M105 45.75 C105.29 54.21, 100.38 63.08, 89.75 61 M89.75 61 C63.48 61.76, 39.6 61.11, 15.25 61 M89.75 61 C70.24 61.88, 50.29 60.93, 15.25 61 M15.25 61 C4.06 59.5, -0.8 57.04, 0 45.75 M15.25 61 C2.82 59.77, -1.3 58, 0 45.75 M0 45.75 C1.55 39.25, -0.81 30.52, 0 15.25 M0 45.75 C0.96 37.86, 0.29 31.11, 0 15.25 M0 15.25 C1.08 4.33, 4.78 1.76, 15.25 0 M0 15.25 C-1.77 5.63, 4.25 -0.83, 15.25 0" stroke="#1e1e1e" stroke-width="1" fill="none"></path></g><g transform="translate(40.15999984741211 164.5) rotate(0 22.34000015258789 12.5)"><text x="22.34000015258789" y="0" font-family="Virgil, Segoe UI Emoji" font-size="20px" fill="#1e1e1e" text-anchor="middle" style="white-space: pre;" direction="ltr" dominant-baseline="text-before-edge">User</text></g><g stroke-linecap="round" transform="translate(866.9137931034484 662.5) rotate(0 22.577586206896513 23.413793103448256)"><path d="M26.05 1.05 C30.47 1.64, 36.42 3.97, 39.53 7.71 C42.64 11.44, 44.77 18.17, 44.72 23.46 C44.67 28.75, 42.45 35.52, 39.24 39.46 C36.02 43.4, 30.22 46.43, 25.43 47.11 C20.64 47.78, 14.42 46.31, 10.48 43.51 C6.55 40.71, 3.38 35.03, 1.83 30.32 C0.28 25.61, -0.3 19.89, 1.17 15.25 C2.65 10.61, 5.96 4.66, 10.68 2.49 C15.4 0.32, 25.71 2.11, 29.5 2.24 C33.28 2.37, 33.38 3.13, 33.38 3.25 M28.59 1.97 C33.19 3.29, 40.36 7.71, 42.89 11.65 C45.42 15.6, 44.76 20.72, 43.78 25.64 C42.79 30.56, 40.21 37.68, 36.99 41.18 C33.78 44.68, 29.39 46.57, 24.49 46.65 C19.58 46.73, 11.31 44.96, 7.54 41.67 C3.77 38.37, 2.6 32.01, 1.86 26.86 C1.11 21.72, 0.84 15.04, 3.08 10.82 C5.32 6.6, 10.94 3.01, 15.28 1.56 C19.63 0.11, 26.61 2.01, 29.17 2.13 C31.73 2.24, 30.48 1.87, 30.64 2.25" stroke="#1e1e1e" stroke-width="1" fill="none"></path></g><g stroke-linecap="round" transform="translate(843.5 708.4913793103449) rotate(0 43.900862068965466 25.50431034482756)"><path d="M12.75 0 M12.75 0 C29.69 -1.88, 43.8 1.02, 75.05 0 M12.75 0 C27.61 -0.14, 43.82 -0.46, 75.05 0 M75.05 0 C84.71 -1.01, 87.8 5.42, 87.8 12.75 M75.05 0 C81.8 -0.71, 88.22 2.16, 87.8 12.75 M87.8 12.75 C89.08 19.71, 88.27 24.6, 87.8 38.26 M87.8 12.75 C87.07 22.56, 88.54 31.66, 87.8 38.26 M87.8 38.26 C86.29 45.12, 82.82 51.32, 75.05 51.01 M87.8 38.26 C89.81 46.5, 82.04 50.89, 75.05 51.01 M75.05 51.01 C48.63 52.47, 25.94 50.4, 12.75 51.01 M75.05 51.01 C53.29 51.91, 30.15 50.32, 12.75 51.01 M12.75 51.01 C3.83 52.99, -1.09 46.38, 0 38.26 M12.75 51.01 C6.1 51.65, -0.94 48.69, 0 38.26 M0 38.26 C-0.41 30, 1.2 18.95, 0 12.75 M0 38.26 C-0.74 29.69, -0.46 21.26, 0 12.75 M0 12.75 C-1.28 2.44, 2.45 -0.19, 12.75 0 M0 12.75 C0.21 4.04, 2.85 -2.21, 12.75 0" stroke="#1e1e1e" stroke-width="1" fill="none"></path></g><g transform="translate(852.5508635948445 723.5431034482759) rotate(0 34.849998474121094 10.45258620689657)"><text x="34.849998474121094" y="0" font-family="Virgil, Segoe UI Emoji" font-size="16.72413793103448px" fill="#1e1e1e" text-anchor="middle" style="white-space: pre;" direction="ltr" dominant-baseline="text-before-edge">Reviewer</text></g><g stroke-linecap="round"><g transform="translate(498.74639420724793 214.89182621743333) rotate(0 10.26362088504925 36.90244844829422)"><path d="M1.14 -0.3 C4.5 12.27, 16.89 62.77, 20.25 75.31 M0.28 -1.51 C3.48 10.7, 15.91 60.42, 19.39 73.38" stroke="#1e1e1e" stroke-width="1" fill="none"></path></g></g><mask></mask><g stroke-linecap="round"><g transform="translate(518.1526435956899 291.0240353567064) rotate(0 30.428831826358703 -0.21166330888488005)"><path d="M1.04 0.29 C11 0.32, 50.78 -0.9, 60.73 -0.77 M0.13 -0.6 C9.8 -0.36, 49.6 0.38, 59.53 0.36" stroke="#1e1e1e" stroke-width="1" fill="none"></path></g></g><mask></mask><g stroke-linecap="round"><g transform="translate(578.7533916530512 291.4087058860593) rotate(0 10.898360196176611 -40.15786112415853)"><path d="M0.49 -1.09 C4.4 -14.22, 18.97 -66.44, 22.51 -79.52 M-0.72 0.95 C3.22 -12.45, 18.46 -67.5, 22.09 -81.26" stroke="#1e1e1e" stroke-width="1" fill="none"></path></g></g><mask></mask><g stroke-linecap="round" transform="translate(498 192.50000000000003) rotate(0 51.128003196472605 17.540263870322732)"><path d="M51.85 -0.36 C61.51 -0.62, 74.66 0.48, 82.85 2.69 C91.04 4.89, 98.31 9.23, 100.99 12.85 C103.66 16.46, 102.25 21.29, 98.89 24.36 C95.52 27.43, 88.98 29.47, 80.79 31.24 C72.61 33.01, 60.03 35.03, 49.77 35 C39.52 34.97, 27.23 33, 19.28 31.07 C11.32 29.13, 4.91 26.73, 2.05 23.4 C-0.81 20.07, -1.13 14.45, 2.13 11.09 C5.39 7.73, 12.58 4.99, 21.6 3.25 C30.62 1.51, 50.16 0.99, 56.23 0.64 C62.3 0.29, 58.26 0.96, 58.03 1.16 M54.81 -1.06 C64.3 -1.17, 76.25 1.39, 83.84 3.76 C91.43 6.13, 97.83 9.74, 100.36 13.17 C102.89 16.59, 102.72 20.99, 99.03 24.32 C95.35 27.66, 86.58 31.14, 78.27 33.17 C69.96 35.21, 58.99 36.67, 49.18 36.52 C39.37 36.37, 27.46 34.47, 19.43 32.27 C11.39 30.08, 3.45 27.04, 0.97 23.36 C-1.52 19.68, 0.96 13.78, 4.5 10.19 C8.05 6.59, 14.01 3.27, 22.23 1.79 C30.45 0.32, 48.69 1.34, 53.82 1.33 C58.96 1.32, 53.23 1.46, 53.04 1.73" stroke="#1e1e1e" stroke-width="1" fill="none"></path></g><g transform="translate(521.8846146319289 244.74759450734433) rotate(0 25.347546594790174 9.329927590597208)"><text x="0" y="0" font-family="Virgil, Segoe UI Emoji" font-size="14.927884144955513px" fill="#1e1e1e" text-anchor="start" style="white-space: pre;" direction="ltr" dominant-baseline="text-before-edge">Bucket</text></g><g stroke-linecap="round" transform="translate(948.5681393047287 316.5) rotate(0 58.33601713753137 18.254808083853362)"><path d="M63.67 -0.16 C73.81 -0.14, 86.69 2.05, 94.91 4.19 C103.14 6.32, 109.57 9.46, 113.02 12.65 C116.46 15.84, 118.05 20.23, 115.57 23.32 C113.09 26.42, 105.77 29.2, 98.11 31.24 C90.46 33.29, 79.77 34.84, 69.63 35.6 C59.49 36.35, 47.09 37.04, 37.28 35.77 C27.46 34.5, 17.07 30.88, 10.74 27.98 C4.42 25.07, -0.33 21.6, -0.68 18.33 C-1.02 15.06, 3.21 11.21, 8.65 8.35 C14.08 5.48, 21.86 2.4, 31.93 1.14 C42 -0.13, 62.13 0.82, 69.05 0.75 C75.98 0.67, 73.7 0.43, 73.48 0.67 M83.41 1.88 C93.04 2.96, 101.73 5.24, 107.15 8.02 C112.58 10.79, 116.14 15.02, 115.97 18.55 C115.8 22.09, 111.44 26.38, 106.13 29.22 C100.82 32.06, 93.56 34.45, 84.12 35.59 C74.68 36.73, 60.25 36.48, 49.5 36.06 C38.75 35.64, 27.69 35.2, 19.63 33.08 C11.56 30.95, 4.04 26.71, 1.11 23.31 C-1.82 19.92, -1.1 15.66, 2.03 12.73 C5.15 9.8, 11.75 8.08, 19.86 5.75 C27.97 3.41, 40.05 -0.67, 50.68 -1.28 C61.32 -1.9, 78.48 1.68, 83.69 2.06 C88.9 2.43, 82.41 0.57, 81.95 0.98" stroke="#1e1e1e" stroke-width="1" fill="none"></path></g><g stroke-linecap="round"><g transform="translate(948.5681393047287 333.1674334678661) rotate(0 0.01841535048379228 27.987762004202864)"><path d="M-0.81 -0.07 C-0.9 9.27, -1.33 47.56, -1.05 57.13 M0.96 -1.16 C1.28 8.36, 1.17 45.97, 1.11 55.42" stroke="#1e1e1e" stroke-width="1" fill="none"></path></g></g><mask></mask><g stroke-linecap="round"><g transform="translate(1065.2255575498405 335.30097402785907) rotate(0 -0.055779833929250344 28.39688500646568)"><path d="M-0.67 -1.06 C-0.77 8.3, -0.2 46.73, -0.23 56.33 M1.18 1 C0.86 10.55, -1.37 48.36, -1.29 57.85" stroke="#1e1e1e" stroke-width="1" fill="none"></path></g></g><mask></mask><g stroke-linecap="round"><g transform="translate(946.9807646887414 388.7255450274198) rotate(0 58.46231956196789 8.196399574201223)"><path d="M0.9 -0.85 C10.59 1.91, 38.72 15.29, 58.07 15.76 C77.43 16.23, 107.2 4.27, 117.02 1.96 M-0.09 1.31 C9.53 4.34, 38.19 16.95, 57.61 17.24 C77.03 17.53, 106.47 5.47, 116.43 3.05" stroke="#1e1e1e" stroke-width="1" fill="none"></path></g></g><mask></mask><g transform="translate(969.9976966205566 365.7086130956047) rotate(0 39.2399024449179 9.921091349920317)"><text x="0" y="0" font-family="Virgil, Segoe UI Emoji" font-size="15.873746159872482px" fill="#1e1e1e" text-anchor="start" style="white-space: pre;" direction="ltr" dominant-baseline="text-before-edge">Database</text></g><g stroke-linecap="round" transform="translate(479 329.5) rotate(0 11.78125 28.09375)"><path d="M5.89 0 M5.89 0 C9.93 0.57, 11.3 -0.71, 17.67 0 M5.89 0 C8.07 0.35, 11 0.14, 17.67 0 M17.67 0 C20.74 -1, 23.17 0.87, 23.56 5.89 M17.67 0 C20.92 2.28, 23.37 1.87, 23.56 5.89 M23.56 5.89 C24.83 21.07, 25.41 35, 23.56 50.3 M23.56 5.89 C22.95 17.06, 24.04 28.49, 23.56 50.3 M23.56 50.3 C25.53 56.02, 19.84 57.57, 17.67 56.19 M23.56 50.3 C25.2 53.07, 19.31 56.98, 17.67 56.19 M17.67 56.19 C15.24 57.11, 12.45 55.69, 5.89 56.19 M17.67 56.19 C15.08 56.01, 13.3 56.15, 5.89 56.19 M5.89 56.19 C2.47 54.84, -0.62 53.53, 0 50.3 M5.89 56.19 C0.88 54.33, 1.2 53.61, 0 50.3 M0 50.3 C1.4 41.46, 0.76 32.02, 0 5.89 M0 50.3 C-0.27 40.06, -0.6 29.26, 0 5.89 M0 5.89 C0.1 0.7, 1.52 -0.07, 5.89 0 M0 5.89 C2.28 0.31, 1.6 1.01, 5.89 0" stroke="#1e1e1e" stroke-width="1" fill="none"></path></g><g stroke-linecap="round" transform="translate(503.46875 329.5) rotate(0 11.78125 28.09375)"><path d="M5.89 0 M5.89 0 C10.67 -0.91, 13.64 -0.74, 17.67 0 M5.89 0 C9.29 -0.51, 13.08 0.5, 17.67 0 M17.67 0 C21.18 -0.92, 25.45 1.51, 23.56 5.89 M17.67 0 C22.18 -1.55, 22.84 1.16, 23.56 5.89 M23.56 5.89 C22.67 15.18, 22.65 26.74, 23.56 50.3 M23.56 5.89 C23.48 21.35, 24.56 38.41, 23.56 50.3 M23.56 50.3 C23.88 54.26, 21.25 55.12, 17.67 56.19 M23.56 50.3 C23.68 52.77, 21.09 56.11, 17.67 56.19 M17.67 56.19 C13.49 57.15, 8.29 56.12, 5.89 56.19 M17.67 56.19 C14.82 56.26, 12.42 56.47, 5.89 56.19 M5.89 56.19 C3.42 56.68, -0.63 53.57, 0 50.3 M5.89 56.19 C3.98 54.63, -1.96 53.84, 0 50.3 M0 50.3 C0.33 36.38, -1.54 23.05, 0 5.89 M0 50.3 C-0.71 40.04, -1.29 28.73, 0 5.89 M0 5.89 C0.29 3.31, 2.21 1.01, 5.89 0 M0 5.89 C0.65 0.84, 0.22 -1.62, 5.89 0" stroke="#1e1e1e" stroke-width="1" fill="none"></path></g><g stroke-linecap="round" transform="translate(527.9375 329.5) rotate(0 32.625 28.09375)"><path d="M14.05 0 M14.05 0 C24.82 -1.42, 31.32 0.89, 51.2 0 M14.05 0 C27.71 0.88, 41.71 0.01, 51.2 0 M51.2 0 C61.15 1.54, 66.53 6.14, 65.25 14.05 M51.2 0 C61.14 -0.73, 64.49 6.7, 65.25 14.05 M65.25 14.05 C65.15 19.33, 65.26 27.16, 65.25 42.14 M65.25 14.05 C64.47 22.78, 65.98 29.69, 65.25 42.14 M65.25 42.14 C66.71 49.56, 61.37 56.47, 51.2 56.19 M65.25 42.14 C66.79 51.79, 61.73 56.84, 51.2 56.19 M51.2 56.19 C40.05 55.51, 33.62 57.14, 14.05 56.19 M51.2 56.19 C42.57 55.38, 36.21 57.18, 14.05 56.19 M14.05 56.19 C3.13 55.5, 1.1 51.47, 0 42.14 M14.05 56.19 C5.42 54.71, -1.11 49.36, 0 42.14 M0 42.14 C-0.19 36.65, -1.12 26.13, 0 14.05 M0 42.14 C0.07 35.38, -0.4 28.93, 0 14.05 M0 14.05 C1.13 2.88, 5.03 0, 14.05 0 M0 14.05 C-2.02 5.63, 6.94 1.18, 14.05 0" stroke="#1e1e1e" stroke-width="1" fill="none"></path></g><g transform="translate(534.1475009918213 346.265625) rotate(0 26.41499900817871 11.328125)"><text x="26.41499900817871" y="0" font-family="Virgil, Segoe UI Emoji" font-size="18.125px" fill="#1e1e1e" text-anchor="middle" style="white-space: pre;" direction="ltr" dominant-baseline="text-before-edge">Queue</text></g><g stroke-linecap="round" transform="translate(593.1875 331.3125) rotate(0 11.78125 28.09375)"><path d="M5.89 0 M5.89 0 C10.03 0.67, 14.39 0.52, 17.67 0 M5.89 0 C9.28 0.13, 14 0.18, 17.67 0 M17.67 0 C21.32 -1.08, 24.61 2.85, 23.56 5.89 M17.67 0 C21.37 1.45, 21.36 -0.16, 23.56 5.89 M23.56 5.89 C25.31 20.9, 25.38 38.15, 23.56 50.3 M23.56 5.89 C23.57 20.64, 24.23 35.74, 23.56 50.3 M23.56 50.3 C23.51 53.3, 23.16 57.16, 17.67 56.19 M23.56 50.3 C25.71 55.22, 23.76 56.75, 17.67 56.19 M17.67 56.19 C13.99 56.72, 9.56 56.01, 5.89 56.19 M17.67 56.19 C13.02 55.52, 8.95 56.13, 5.89 56.19 M5.89 56.19 C2.93 55.85, -0.86 55.08, 0 50.3 M5.89 56.19 C2.17 58.04, -0.27 54.77, 0 50.3 M0 50.3 C-0.4 32.05, 0.47 14.09, 0 5.89 M0 50.3 C-0.11 36.72, 0.91 24.1, 0 5.89 M0 5.89 C1.38 3.7, 1.74 -1.47, 5.89 0 M0 5.89 C0.01 3.63, -0.01 1.23, 5.89 0" stroke="#1e1e1e" stroke-width="1" fill="none"></path></g><g stroke-linecap="round" transform="translate(617.65625 331.3125) rotate(0 11.78125 28.09375)"><path d="M5.89 0 M5.89 0 C9.18 -0.87, 14.28 -1.29, 17.67 0 M5.89 0 C10.45 -0.31, 15.47 -0.01, 17.67 0 M17.67 0 C23.21 -0.24, 24.03 3.88, 23.56 5.89 M17.67 0 C23.08 1.44, 23.43 1.19, 23.56 5.89 M23.56 5.89 C23.73 21.64, 23.29 34.26, 23.56 50.3 M23.56 5.89 C24.14 23.54, 22.53 41.41, 23.56 50.3 M23.56 50.3 C25.02 52.5, 22.67 54.75, 17.67 56.19 M23.56 50.3 C24.48 55.22, 23.46 55.7, 17.67 56.19 M17.67 56.19 C13.39 57.25, 10.94 55.89, 5.89 56.19 M17.67 56.19 C14.73 55.71, 12.53 55.86, 5.89 56.19 M5.89 56.19 C2.06 57.81, -1.29 54.31, 0 50.3 M5.89 56.19 C-0.27 55.74, 1.67 55.61, 0 50.3 M0 50.3 C1.62 34.38, 0.31 13.3, 0 5.89 M0 50.3 C0.04 39.02, 0.48 25.85, 0 5.89 M0 5.89 C1.58 0.04, 1.78 0.59, 5.89 0 M0 5.89 C1.11 1.18, 4.04 2, 5.89 0" stroke="#1e1e1e" stroke-width="1" fill="none"></path></g><g stroke-linecap="round" transform="translate(244 321.5) rotate(0 61 31)"><path d="M15.5 0 M15.5 0 C39.51 0.86, 65.21 -1.27, 106.5 0 M15.5 0 C50.26 0.56, 84.1 0.99, 106.5 0 M106.5 0 C118.57 0.51, 120.89 6.45, 122 15.5 M106.5 0 C116.45 1.2, 121.02 3.02, 122 15.5 M122 15.5 C120.75 25.9, 122.39 36.07, 122 46.5 M122 15.5 C123.05 22.78, 121.55 29.92, 122 46.5 M122 46.5 C121.18 56.87, 118.14 60.6, 106.5 62 M122 46.5 C121.31 58.06, 118.12 60.55, 106.5 62 M106.5 62 C78.91 64.26, 50.58 62.26, 15.5 62 M106.5 62 C77.79 63.34, 51.22 62.81, 15.5 62 M15.5 62 C5.56 60.39, 0.38 55.81, 0 46.5 M15.5 62 C5.32 60.61, 1.93 58.3, 0 46.5 M0 46.5 C-1.06 38.49, -0.26 25.73, 0 15.5 M0 46.5 C-0.73 35.08, 0.05 22.3, 0 15.5 M0 15.5 C-0.38 5.34, 7.09 -1.25, 15.5 0 M0 15.5 C1.33 4.4, 6.97 -1.5, 15.5 0" stroke="#1e1e1e" stroke-width="1" fill="none"></path></g><g transform="translate(272.3299980163574 340) rotate(0 32.67000198364258 12.5)"><text x="32.67000198364258" y="0" font-family="Virgil, Segoe UI Emoji" font-size="20px" fill="#1e1e1e" text-anchor="middle" style="white-space: pre;" direction="ltr" dominant-baseline="text-before-edge">Report</text></g><g stroke-linecap="round" transform="translate(749 331.5) rotate(0 61 31)"><path d="M15.5 0 M15.5 0 C32.84 2.33, 52.62 0.5, 106.5 0 M15.5 0 C49.02 -0.04, 81.41 -1.34, 106.5 0 M106.5 0 C117.82 -1.8, 123.92 6.19, 122 15.5 M106.5 0 C117.23 -1.84, 121.38 3.5, 122 15.5 M122 15.5 C123.55 23.41, 123.82 31.49, 122 46.5 M122 15.5 C122.74 24.69, 121.8 31.55, 122 46.5 M122 46.5 C121.51 58.66, 117.7 62.8, 106.5 62 M122 46.5 C123.66 56.68, 118 62.23, 106.5 62 M106.5 62 C73.72 62.38, 39.83 60.97, 15.5 62 M106.5 62 C85.97 62, 65.64 62.29, 15.5 62 M15.5 62 C4.64 62.57, 1.27 55.63, 0 46.5 M15.5 62 C4.54 63.23, 0.22 57.63, 0 46.5 M0 46.5 C0.05 38.5, 1.32 31.38, 0 15.5 M0 46.5 C-0.28 40.54, 0.46 33.55, 0 15.5 M0 15.5 C1.46 3.82, 4.46 -1.03, 15.5 0 M0 15.5 C0.05 3.73, 5.27 0.7, 15.5 0" stroke="#1e1e1e" stroke-width="1" fill="none"></path></g><g transform="translate(766.1399993896484 350) rotate(0 43.86000061035156 12.5)"><text x="43.86000061035156" y="0" font-family="Virgil, Segoe UI Emoji" font-size="20px" fill="#1e1e1e" text-anchor="middle" style="white-space: pre;" direction="ltr" dominant-baseline="text-before-edge">Consumer</text></g><g stroke-linecap="round" transform="translate(746 507.5) rotate(0 61 31)"><path d="M15.5 0 M15.5 0 C47.43 -1.98, 80.78 0.23, 106.5 0 M15.5 0 C45.23 0.25, 72.94 0.46, 106.5 0 M106.5 0 C115.19 -0.73, 122.98 6.01, 122 15.5 M106.5 0 C118.27 -0.24, 122.38 7.32, 122 15.5 M122 15.5 C120.72 26.76, 120.3 40.62, 122 46.5 M122 15.5 C121.14 26.11, 122.37 37.26, 122 46.5 M122 46.5 C122.71 55.68, 115.93 63.55, 106.5 62 M122 46.5 C123.13 57.55, 115.09 64.1, 106.5 62 M106.5 62 C83.25 61.72, 58.95 64.41, 15.5 62 M106.5 62 C85.55 61.44, 65.77 62.07, 15.5 62 M15.5 62 C6.3 62.46, -0.17 58.14, 0 46.5 M15.5 62 C5.5 62.89, 0.87 57.34, 0 46.5 M0 46.5 C-0.73 38.46, -0.48 33.02, 0 15.5 M0 46.5 C-0.2 36.02, 0.44 27.03, 0 15.5 M0 15.5 C1.67 4.61, 4.11 -1.04, 15.5 0 M0 15.5 C1.97 3.48, 4.63 1.6, 15.5 0" stroke="#1e1e1e" stroke-width="1" fill="none"></path></g><g transform="translate(770.3600006103516 513.5) rotate(0 36.63999938964844 25)"><text x="36.63999938964844" y="0" font-family="Virgil, Segoe UI Emoji" font-size="20px" fill="#1e1e1e" text-anchor="middle" style="white-space: pre;" direction="ltr" dominant-baseline="text-before-edge">Review </text><text x="36.63999938964844" y="25" font-family="Virgil, Segoe UI Emoji" font-size="20px" fill="#1e1e1e" text-anchor="middle" style="white-space: pre;" direction="ltr" dominant-baseline="text-before-edge">Notifier</text></g><g stroke-linecap="round" transform="translate(946 509.5) rotate(0 61 31)"><path d="M15.5 0 M15.5 0 C38.25 0.15, 56.82 1.01, 106.5 0 M15.5 0 C52.04 0.46, 87.54 0.77, 106.5 0 M106.5 0 C117.95 -0.94, 123.85 3.87, 122 15.5 M106.5 0 C116.68 1.04, 122.37 7.15, 122 15.5 M122 15.5 C122.27 21.97, 121.27 30.95, 122 46.5 M122 15.5 C122.41 21.92, 122.58 28.98, 122 46.5 M122 46.5 C122.36 58.39, 114.88 61.16, 106.5 62 M122 46.5 C121.28 58.26, 117.48 64.03, 106.5 62 M106.5 62 C72.38 61.45, 34.49 61.42, 15.5 62 M106.5 62 C81.6 61.63, 56.48 62.05, 15.5 62 M15.5 62 C3.89 60.28, -1.75 55.17, 0 46.5 M15.5 62 C6.94 62.77, -1.04 57.96, 0 46.5 M0 46.5 C-1.04 33.95, 1.79 24.92, 0 15.5 M0 46.5 C0.01 38.68, 0.12 29.08, 0 15.5 M0 15.5 C1.54 6.4, 5.8 -1.38, 15.5 0 M0 15.5 C-1.77 5.07, 6.28 0.37, 15.5 0" stroke="#1e1e1e" stroke-width="1" fill="none"></path></g><g transform="translate(975.7700004577637 528) rotate(0 31.229999542236328 12.5)"><text x="31.229999542236328" y="0" font-family="Virgil, Segoe UI Emoji" font-size="20px" fill="#1e1e1e" text-anchor="middle" style="white-space: pre;" direction="ltr" dominant-baseline="text-before-edge">Review</text></g><g stroke-linecap="round" transform="translate(950 136.5) rotate(0 61 31)"><path d="M15.5 0 M15.5 0 C45.19 -1.16, 77.67 0.13, 106.5 0 M15.5 0 C40.11 1.17, 66.02 0.54, 106.5 0 M106.5 0 C116.62 -0.99, 120.9 4.88, 122 15.5 M106.5 0 C116.75 1.86, 122.38 5.61, 122 15.5 M122 15.5 C121.83 25.45, 123.25 40.9, 122 46.5 M122 15.5 C122.98 25.83, 121.99 34.01, 122 46.5 M122 46.5 C120.93 54.96, 118.46 62.43, 106.5 62 M122 46.5 C122.25 58.89, 117.54 63.07, 106.5 62 M106.5 62 C85.33 61.23, 66.49 61.76, 15.5 62 M106.5 62 C71.5 62.68, 37.11 61.62, 15.5 62 M15.5 62 C4.73 61.93, 1.78 56.04, 0 46.5 M15.5 62 C5.09 63.35, -2.07 55.48, 0 46.5 M0 46.5 C-0.34 32.74, -0.29 21.78, 0 15.5 M0 46.5 C0.27 37.42, -0.34 27.64, 0 15.5 M0 15.5 C1.77 6.39, 5.04 1.71, 15.5 0 M0 15.5 C2.26 4.43, 3.21 -1.62, 15.5 0" stroke="#1e1e1e" stroke-width="1" fill="none"></path></g><g transform="translate(982.310001373291 155) rotate(0 28.689998626708984 12.5)"><text x="28.689998626708984" y="0" font-family="Virgil, Segoe UI Emoji" font-size="20px" fill="#1e1e1e" text-anchor="middle" style="white-space: pre;" direction="ltr" dominant-baseline="text-before-edge">Viewer</text></g><g mask="url(#mask-AA8hNpW5QRS8dwKvgEbHP)" stroke-linecap="round"><g transform="translate(79.35814360759434 213.5) rotate(0 76.08463963265893 59.06436638100726)"><path d="M0.9 1.06 C26.29 20.59, 126.79 97.06, 152.25 116.45 M-0.08 0.58 C25.13 20.3, 125.52 97.85, 151.1 117.55" stroke="#1e1e1e" stroke-width="1" fill="none"></path></g><g transform="translate(79.35814360759434 213.5) rotate(0 76.08463963265893 59.06436638100726)"><path d="M124.29 107.81 C129.42 112.58, 139.34 115.36, 152.11 115.88 M123.18 109.32 C129.98 110.39, 138.75 113.02, 151.28 116.71" stroke="#1e1e1e" stroke-width="1" fill="none"></path></g><g transform="translate(79.35814360759434 213.5) rotate(0 76.08463963265893 59.06436638100726)"><path d="M136.82 91.56 C138.2 101.17, 144.47 108.68, 152.11 115.88 M135.71 93.08 C139.02 98.71, 144.19 106.02, 151.28 116.71" stroke="#1e1e1e" stroke-width="1" fill="none"></path></g></g><mask id="mask-AA8hNpW5QRS8dwKvgEbHP"><rect x="0" y="0" fill="#fff" width="332" height="430.7756760314982"></rect><rect x="147.8890718419441" y="259.63783801574914" fill="#000" width="15.579999923706055" height="25" opacity="1"></rect></mask><g transform="translate(147.8890718419441 259.63783801574914) rotate(0 7.55371139830919 12.926528365258122)"><text x="7.789999961853027" y="0" font-family="Virgil, Segoe UI Emoji" font-size="20px" fill="#1e1e1e" text-anchor="middle" style="white-space: pre;" direction="ltr" dominant-baseline="text-before-edge">1b</text></g><g stroke-linecap="round" transform="translate(241 214.5) rotate(0 61 31)"><path d="M15.5 0 M15.5 0 C32.17 1.81, 50.87 -1.23, 106.5 0 M15.5 0 C34.02 -0.09, 52.1 0.34, 106.5 0 M106.5 0 C114.85 -0.1, 121.78 6.14, 122 15.5 M106.5 0 C115.84 0.58, 120.53 4.46, 122 15.5 M122 15.5 C121.42 22.76, 120.74 31.66, 122 46.5 M122 15.5 C121.34 27.15, 122.76 38.38, 122 46.5 M122 46.5 C122.94 58.31, 115.26 60.24, 106.5 62 M122 46.5 C123.58 54.79, 117.13 62.04, 106.5 62 M106.5 62 C75.44 62.48, 40.07 62.09, 15.5 62 M106.5 62 C75.03 61.57, 42.82 63.06, 15.5 62 M15.5 62 C5.1 60.32, -0.46 55.45, 0 46.5 M15.5 62 C4.79 63.81, 0.5 55.29, 0 46.5 M0 46.5 C-0.84 33.88, -0.18 26.4, 0 15.5 M0 46.5 C0.22 35.84, -0.99 26.26, 0 15.5 M0 15.5 C0.05 5.73, 6.16 -1.26, 15.5 0 M0 15.5 C-1.56 3.66, 3.53 2.29, 15.5 0" stroke="#1e1e1e" stroke-width="1" fill="none"></path></g><g transform="translate(259.63000106811523 233) rotate(0 42.369998931884766 12.5)"><text x="42.369998931884766" y="0" font-family="Virgil, Segoe UI Emoji" font-size="20px" fill="#1e1e1e" text-anchor="middle" style="white-space: pre;" direction="ltr" dominant-baseline="text-before-edge">Uploader</text></g><g mask="url(#mask-_LjFyXMZzOLOszWhCkKE3)" stroke-linecap="round"><g transform="translate(122 181.045948303204) rotate(0 55.39220911229032 18.593042252221835)"><path d="M0.56 -0.54 C19.24 5.62, 93.14 31.54, 111.39 37.72 M-0.61 1.8 C18.01 7.51, 91.81 29.8, 110.65 35.72" stroke="#1e1e1e" stroke-width="1" fill="none"></path></g><g transform="translate(122 181.045948303204) rotate(0 55.39220911229032 18.593042252221835)"><path d="M79.8 37.9 C88.3 35.16, 93.56 36.51, 110.56 37.61 M80.03 37.44 C88.12 36.2, 97.07 35.55, 110.49 36.13" stroke="#1e1e1e" stroke-width="1" fill="none"></path></g><g transform="translate(122 181.045948303204) rotate(0 55.39220911229032 18.593042252221835)"><path d="M85.83 18.28 C93 20.31, 96.81 26.4, 110.56 37.61 M86.06 17.83 C92.6 21.79, 99.94 26.38, 110.49 36.13" stroke="#1e1e1e" stroke-width="1" fill="none"></path></g></g><mask id="mask-_LjFyXMZzOLOszWhCkKE3"><rect x="0" y="0" fill="#fff" width="333" height="318.53329349282336"></rect><rect x="168.11999988555908" y="187.2896208980137" fill="#000" width="18.760000228881836" height="25" opacity="1"></rect></mask><g transform="translate(168.11999988555908 187.2896208980137) rotate(0 9.272209226731235 12.349369657412126)"><text x="9.380000114440918" y="0" font-family="Virgil, Segoe UI Emoji" font-size="20px" fill="#1e1e1e" text-anchor="middle" style="white-space: pre;" direction="ltr" dominant-baseline="text-before-edge">1a</text></g><g mask="url(#mask-k9f_ruEQgq2GN-MEmy8P6)" stroke-linecap="round"><g transform="translate(371 245.03876410871243) rotate(0 67.9585055235774 1.579528839397085)"><path d="M-0.89 -0.16 C21.83 0.32, 113.92 2.61, 136.81 3.02 M0.84 -1.29 C23.43 -0.63, 113.78 3.72, 136.29 4.45" stroke="#1e1e1e" stroke-width="1" fill="none"></path></g><g transform="translate(371 245.03876410871243) rotate(0 67.9585055235774 1.579528839397085)"><path d="M107.44 14.89 C117.1 11.4, 125.59 5.8, 136.11 4.39 M106.93 12.62 C115.37 11.52, 124.64 7.9, 136.86 4.03" stroke="#1e1e1e" stroke-width="1" fill="none"></path></g><g transform="translate(371 245.03876410871243) rotate(0 67.9585055235774 1.579528839397085)"><path d="M108.28 -5.61 C117.68 -2.13, 125.88 -0.73, 136.11 4.39 M107.78 -7.88 C116.04 -3, 125.06 -0.62, 136.86 4.03" stroke="#1e1e1e" stroke-width="1" fill="none"></path></g></g><mask id="mask-k9f_ruEQgq2GN-MEmy8P6"><rect x="0" y="0" fill="#fff" width="607.0000000000001" height="348.2546082473027"></rect><rect x="425.210000038147" y="234.14668617800754" fill="#000" width="27.579999923706055" height="25" opacity="1"></rect></mask><g transform="translate(425.210000038147 234.1466861780076) rotate(0 13.748505485430428 12.471606770101914)"><text x="13.789999961853027" y="0" font-family="Virgil, Segoe UI Emoji" font-size="20px" fill="#1e1e1e" text-anchor="middle" style="white-space: pre;" direction="ltr" dominant-baseline="text-before-edge">2a</text></g><g mask="url(#mask-3QhDAE0yyonmt8FrUsH2h)" stroke-linecap="round"><g transform="translate(968.4917853509896 129.5) rotate(0 -432.903000822844 -53.68044281868193)"><path d="M0.65 0.13 C-30.5 -17.78, -42.61 -102.32, -187.1 -107.25 C-331.59 -112.18, -753.01 -42.09, -866.31 -29.45 M-0.47 -0.84 C-31.73 -18.6, -43.51 -100.76, -187.85 -105.84 C-332.18 -110.92, -753.38 -43.84, -866.45 -31.34" stroke="#1e1e1e" stroke-width="1" fill="none"></path></g><g transform="translate(968.4917853509896 129.5) rotate(0 -432.903000822844 -53.68044281868193)"><path d="M-839.64 -44.59 C-847.79 -39.18, -853.49 -36.17, -868.28 -30.37 M-839.14 -44.86 C-847.86 -40.94, -856.6 -37.07, -865.47 -30.96" stroke="#1e1e1e" stroke-width="1" fill="none"></path></g><g transform="translate(968.4917853509896 129.5) rotate(0 -432.903000822844 -53.68044281868193)"><path d="M-836.93 -24.25 C-845.89 -24.6, -852.36 -27.35, -868.28 -30.37 M-836.42 -24.52 C-846.03 -26.7, -855.59 -28.96, -865.47 -30.96" stroke="#1e1e1e" stroke-width="1" fill="none"></path></g></g><mask id="mask-3QhDAE0yyonmt8FrUsH2h"><rect x="0" y="0" fill="#fff" width="1935.9835707019793" height="336.5"></rect><rect x="768.2399997711182" y="10" fill="#000" width="25.520000457763672" height="25" opacity="1"></rect></mask><g transform="translate(768.2399997711182 10) rotate(0 -232.6512152429725 65.81955718131806)"><text x="12.760000228881836" y="0" font-family="Virgil, Segoe UI Emoji" font-size="20px" fill="#1e1e1e" text-anchor="middle" style="white-space: pre;" direction="ltr" dominant-baseline="text-before-edge">9a</text></g><g mask="url(#mask-ebddYr2K24xja_uaKoamB)" stroke-linecap="round"><g transform="translate(549.6800097167875 188.11181609949512) rotate(0 -223.27240378584764 -46.34641464428371)"><path d="M-0.92 -0.3 C-13.25 -15.06, -0.26 -77.17, -74.6 -89.21 C-148.94 -101.25, -384.93 -75.43, -446.96 -72.55 M0.8 -1.51 C-11.62 -16.05, -0.81 -76.36, -75.5 -87.98 C-150.19 -99.6, -385.59 -73.54, -447.34 -71.23" stroke="#1e1e1e" stroke-width="1" fill="none"></path></g><g transform="translate(549.6800097167875 188.11181609949512) rotate(0 -223.27240378584764 -46.34641464428371)"><path d="M-420.48 -83.38 C-427.79 -79.49, -433.54 -76.11, -446.25 -71.26 M-419.61 -84.19 C-431.12 -79.24, -441.26 -74.9, -446.59 -71.27" stroke="#1e1e1e" stroke-width="1" fill="none"></path></g><g transform="translate(549.6800097167875 188.11181609949512) rotate(0 -223.27240378584764 -46.34641464428371)"><path d="M-418.99 -62.91 C-426.55 -64.09, -432.67 -65.76, -446.25 -71.26 M-418.11 -63.73 C-430.24 -66.44, -440.94 -69.77, -446.59 -71.27" stroke="#1e1e1e" stroke-width="1" fill="none"></path></g></g><mask id="mask-ebddYr2K24xja_uaKoamB"><rect x="0" y="0" fill="#fff" width="1097.360019433575" height="376.72363219899023"></rect><rect x="463.82999992370605" y="87" fill="#000" width="22.34000015258789" height="25" opacity="1"></rect></mask><g transform="translate(463.82999992370605 87) rotate(0 -137.42239399276622 54.7654014552114)"><text x="11.170000076293945" y="0" font-family="Virgil, Segoe UI Emoji" font-size="20px" fill="#1e1e1e" text-anchor="middle" style="white-space: pre;" direction="ltr" dominant-baseline="text-before-edge">9b</text></g><g mask="url(#mask-EaGrNPXoOwQ4APwZQtIKP)" stroke-linecap="round"><g transform="translate(373 357.4655248544926) rotate(0 48.45312653221191 0.7244583193409824)"><path d="M-0.77 -0.55 C6.22 -0.42, 26.66 0.07, 43.07 0.22 C59.48 0.37, 88.55 0.24, 97.67 0.35 M1.03 1.77 C7.77 2.18, 26.12 1.94, 42.16 1.86 C58.19 1.78, 87.87 1.29, 97.26 1.3" stroke="#1e1e1e" stroke-width="1" fill="none"></path></g><g transform="translate(373 357.4655248544926) rotate(0 48.45312653221191 0.7244583193409824)"><path d="M71.04 10.85 C82.28 8.3, 90.75 4.83, 96.97 0.64 M72.28 11.61 C79.31 7.99, 86.68 6.21, 96.4 1.94" stroke="#1e1e1e" stroke-width="1" fill="none"></path></g><g transform="translate(373 357.4655248544926) rotate(0 48.45312653221191 0.7244583193409824)"><path d="M70.89 -7.62 C82.1 -2.9, 90.63 0.9, 96.97 0.64 M72.13 -6.87 C79.27 -5.12, 86.68 -1.54, 96.4 1.94" stroke="#1e1e1e" stroke-width="1" fill="none"></path></g></g><mask id="mask-EaGrNPXoOwQ4APwZQtIKP"><rect x="0" y="0" fill="#fff" width="570" height="458.51996161617427"></rect><rect x="403.80000019073486" y="345" fill="#000" width="24.399999618530273" height="25" opacity="1"></rect></mask><g transform="translate(403.80000019073486 345) rotate(0 17.653126341477048 13.18998317383361)"><text x="12.199999809265137" y="0" font-family="Virgil, Segoe UI Emoji" font-size="20px" fill="#1e1e1e" text-anchor="middle" style="white-space: pre;" direction="ltr" dominant-baseline="text-before-edge">2b</text></g><g mask="url(#mask-3KgUFEtbkWtZF46mkvloL)" stroke-linecap="round"><g transform="translate(651 362.11237076256555) rotate(0 45.996227519270064 0.2837880506114061)"><path d="M0.79 -0.44 C15.71 -0.17, 75.16 1.84, 90.04 2.29 M-0.25 -1.71 C14.99 -1.84, 76.79 0.25, 92.24 0.59" stroke="#1e1e1e" stroke-width="1" fill="none"></path></g><g transform="translate(651 362.11237076256555) rotate(0 45.996227519270064 0.2837880506114061)"><path d="M63.04 8.45 C74.88 5.04, 84.65 3.44, 90.6 1.19 M63.84 9.14 C71.67 8.04, 80.64 5.44, 92.29 0.7" stroke="#1e1e1e" stroke-width="1" fill="none"></path></g><g transform="translate(651 362.11237076256555) rotate(0 45.996227519270064 0.2837880506114061)"><path d="M63.62 -12.06 C75.37 -8.4, 84.94 -2.94, 90.6 1.19 M64.41 -11.38 C72.1 -6.6, 80.9 -3.34, 92.29 0.7" stroke="#1e1e1e" stroke-width="1" fill="none"></path></g></g><mask id="mask-3KgUFEtbkWtZF46mkvloL"><rect x="0" y="0" fill="#fff" width="842" height="463.590556879597"></rect><rect x="689.6900000572205" y="350.3514638210812" fill="#000" width="13.619999885559082" height="25" opacity="1"></rect></mask><g transform="translate(689.6900000572205 350.35146382108127) rotate(0 7.3062274620496055 12.044694992095685)"><text x="6.809999942779541" y="0" font-family="Virgil, Segoe UI Emoji" font-size="20px" fill="#1e1e1e" text-anchor="middle" style="white-space: pre;" direction="ltr" dominant-baseline="text-before-edge">3</text></g><g mask="url(#mask-VnSJ6VUFe0oHHfjN0_ICh)" stroke-linecap="round"><g transform="translate(804.4987712869438 403.5) rotate(0 -0.8502120152508041 46.23374560170805)"><path d="M-0.85 -0.78 C-0.92 6.37, 0.97 26.99, 0.79 42.5 C0.61 58.01, -1.45 84.07, -1.93 92.3 M0.9 1.43 C0.6 8.25, 0.57 25.33, -0.01 40.64 C-0.59 55.94, -2.3 84.63, -2.6 93.24" stroke="#1e1e1e" stroke-width="1" fill="none"></path></g><g transform="translate(804.4987712869438 403.5) rotate(0 -0.8502120152508041 46.23374560170805)"><path d="M-11.48 69.34 C-6.42 78.9, -5.42 88.31, -4.52 94.55 M-9.88 68.83 C-7.75 74.75, -5.67 81.02, -3.5 92.75" stroke="#1e1e1e" stroke-width="1" fill="none"></path></g><g transform="translate(804.4987712869438 403.5) rotate(0 -0.8502120152508041 46.23374560170805)"><path d="M5.97 70.17 C4.11 79.27, -1.8 88.35, -4.52 94.55 M7.57 69.65 C5.39 75.5, 3.16 81.56, -3.5 92.75" stroke="#1e1e1e" stroke-width="1" fill="none"></path></g></g><mask id="mask-VnSJ6VUFe0oHHfjN0_ICh"><rect x="0" y="0" fill="#fff" width="907.1197539432758" height="596.5"></rect><rect x="793.5200004577637" y="433" fill="#000" width="22.959999084472656" height="25" opacity="1"></rect></mask><g transform="translate(793.5200004577637 433) rotate(0 10.128558813929317 16.73374560170805)"><text x="11.479999542236328" y="0" font-family="Virgil, Segoe UI Emoji" font-size="20px" fill="#1e1e1e" text-anchor="middle" style="white-space: pre;" direction="ltr" dominant-baseline="text-before-edge">4b</text></g><g mask="url(#mask-s5nZt5NsHLQhBakvkMt67)" stroke-linecap="round"><g transform="translate(813.9705859742471 577.5) rotate(0 28.617775021995953 39.60784444617116)"><path d="M-1.13 -0.93 C8.68 12.14, 48.7 65.44, 58.37 78.91 M0.47 1.19 C10.24 14.37, 48.02 67.39, 57.84 80.15" stroke="#1e1e1e" stroke-width="1" fill="none"></path></g><g transform="translate(813.9705859742471 577.5) rotate(0 28.617775021995953 39.60784444617116)"><path d="M31.31 64.87 C38.47 66.9, 46.55 73.45, 58.43 81.92 M32.77 63.05 C40.59 67.28, 47.23 73.97, 57.64 80.06" stroke="#1e1e1e" stroke-width="1" fill="none"></path></g><g transform="translate(813.9705859742471 577.5) rotate(0 28.617775021995953 39.60784444617116)"><path d="M47.83 52.7 C50.75 57.73, 54.54 67.44, 58.43 81.92 M49.29 50.88 C52.15 58.84, 53.91 69.12, 57.64 80.06" stroke="#1e1e1e" stroke-width="1" fill="none"></path></g></g><mask id="mask-s5nZt5NsHLQhBakvkMt67"><rect x="0" y="0" fill="#fff" width="971.5368003795074" height="756.9761376862975"></rect><rect x="836.5736933485387" y="604.7380688431488" fill="#000" width="12.359999656677246" height="25" opacity="1"></rect></mask><g transform="translate(836.5736933485387 604.7380688431488) rotate(0 6.014667647704414 12.36977560302239)"><text x="6.179999828338623" y="0" font-family="Virgil, Segoe UI Emoji" font-size="20px" fill="#1e1e1e" text-anchor="middle" style="white-space: pre;" direction="ltr" dominant-baseline="text-before-edge">5</text></g><g mask="url(#mask-lL_CL_8y7C_YEOhrx8CU4)" stroke-linecap="round"><g transform="translate(910.540509472934 662.4846242913177) rotate(0 35.35994566627596 -39.56100898854163)"><path d="M-0.83 0.64 C11.06 -12.21, 59.43 -64.63, 71.55 -77.76 M0.94 -0.07 C12.66 -13.25, 58.97 -66.96, 70.73 -79.76" stroke="#1e1e1e" stroke-width="1" fill="none"></path></g><g transform="translate(910.540509472934 662.4846242913177) rotate(0 35.35994566627596 -39.56100898854163)"><path d="M60.79 -51.45 C63.76 -59.69, 66.64 -70.77, 71.5 -81.57 M60.63 -51.97 C62.91 -60.71, 65.87 -69.54, 70.29 -79.33" stroke="#1e1e1e" stroke-width="1" fill="none"></path></g><g transform="translate(910.540509472934 662.4846242913177) rotate(0 35.35994566627596 -39.56100898854163)"><path d="M45.43 -65.06 C53.24 -68.84, 61.03 -75.57, 71.5 -81.57 M45.27 -65.57 C52.39 -70.12, 60.08 -74.78, 70.29 -79.33" stroke="#1e1e1e" stroke-width="1" fill="none"></path></g></g><mask id="mask-lL_CL_8y7C_YEOhrx8CU4"><rect x="0" y="0" fill="#fff" width="1081.8443359358735" height="840.4692485826354"></rect><rect x="939.7924226090363" y="610.9923121456588" fill="#000" width="12.800000190734863" height="25" opacity="1"></rect></mask><g transform="translate(939.7924226090363 610.9923121456588) rotate(0 6.108032530173659 11.931303157117213)"><text x="6.400000095367432" y="0" font-family="Virgil, Segoe UI Emoji" font-size="20px" fill="#1e1e1e" text-anchor="middle" style="white-space: pre;" direction="ltr" dominant-baseline="text-before-edge">6</text></g><g mask="url(#mask-oVoSgc19NE7OIufGJbFSP)" stroke-linecap="round"><g transform="translate(874 363.2540166581897) rotate(0 37.987688128016885 2.557582813433669)"><path d="M0.94 -0.97 C13.2 0.21, 61.51 5.09, 73.88 6.09 M-0.02 1.13 C12.57 2.06, 63.59 3.52, 76 4.36" stroke="#1e1e1e" stroke-width="1" fill="none"></path></g><g transform="translate(874 363.2540166581897) rotate(0 37.987688128016885 2.557582813433669)"><path d="M45.75 11.45 C58 10.39, 65.54 6.87, 74.75 2.86 M48.23 13.67 C56.82 10.35, 65.5 8.39, 76.86 5.05" stroke="#1e1e1e" stroke-width="1" fill="none"></path></g><g transform="translate(874 363.2540166581897) rotate(0 37.987688128016885 2.557582813433669)"><path d="M46.68 -9.05 C58.46 -3.43, 65.69 -0.28, 74.75 2.86 M49.17 -6.83 C57.48 -3.62, 65.86 0.94, 76.86 5.05" stroke="#1e1e1e" stroke-width="1" fill="none"></path></g></g><mask id="mask-oVoSgc19NE7OIufGJbFSP"><rect x="0" y="0" fill="#fff" width="1049" height="468.5951273994014"></rect><rect x="898.4300003051758" y="353.4245720287955" fill="#000" width="26.139999389648438" height="25" opacity="1"></rect></mask><g transform="translate(898.4300003051758 353.4245720287955) rotate(0 13.557687822841103 12.387027442827844)"><text x="13.069999694824219" y="0" font-family="Virgil, Segoe UI Emoji" font-size="20px" fill="#1e1e1e" text-anchor="middle" style="white-space: pre;" direction="ltr" dominant-baseline="text-before-edge">4a</text></g><g mask="url(#mask-J4KCa_rRQ57uk78X8jIrL)" stroke-linecap="round"><g transform="translate(1016.2407027366182 501.5) rotate(0 -1.3823334588624903 -53.48668348053462)"><path d="M0.34 0.71 C0.09 -7.27, -1.05 -29.68, -1.52 -47.39 C-1.98 -65.11, -2.38 -95.78, -2.44 -105.57 M-0.94 0.04 C-1.29 -8.34, -1.73 -31.24, -2.09 -49.2 C-2.45 -67.15, -3.23 -98.37, -3.09 -107.69" stroke="#1e1e1e" stroke-width="1" fill="none"></path></g><g transform="translate(1016.2407027366182 501.5) rotate(0 -1.3823334588624903 -53.48668348053462)"><path d="M8.19 -79.29 C4.86 -88.29, 1.52 -95.54, -3.31 -108.96 M7.72 -80.86 C4.33 -89.18, -0.17 -99.35, -3.88 -108.13" stroke="#1e1e1e" stroke-width="1" fill="none"></path></g><g transform="translate(1016.2407027366182 501.5) rotate(0 -1.3823334588624903 -53.48668348053462)"><path d="M-11.65 -79.17 C-9.01 -88.26, -6.37 -95.55, -3.31 -108.96 M-12.12 -80.73 C-8.43 -89.23, -5.87 -99.45, -3.88 -108.13" stroke="#1e1e1e" stroke-width="1" fill="none"></path></g></g><mask id="mask-J4KCa_rRQ57uk78X8jIrL"><rect x="0" y="0" fill="#fff" width="1118.902867931867" height="707.4999999999999"></rect><rect x="1008.6199998855589" y="441" fill="#000" width="10.760000228881836" height="25" opacity="1"></rect></mask><g transform="translate(1008.6199998855591 440.99999999999994) rotate(0 6.23836939219666 7.013316519465377)"><text x="5.380000114440918" y="0" font-family="Virgil, Segoe UI Emoji" font-size="20px" fill="#1e1e1e" text-anchor="middle" style="white-space: pre;" direction="ltr" dominant-baseline="text-before-edge">7</text></g><g mask="url(#mask-vmlwPrD9_4FaVW-qQMb1S)" stroke-linecap="round"><g transform="translate(1011.2582060361003 204.5) rotate(0 0.7420752838504541 49.66472221211231)"><path d="M-0.28 1.17 C-0.05 17.41, 1.02 82.36, 1.48 98.59 M1.77 0.74 C1.81 17.11, 0.36 80.06, 0.42 96.61" stroke="#1e1e1e" stroke-width="1" fill="none"></path></g><g transform="translate(1011.2582060361003 204.5) rotate(0 0.7420752838504541 49.66472221211231)"><path d="M-7.58 67.96 C-5.75 78.35, -2.71 85.8, -1.52 97.47 M-10.29 68.25 C-6.76 75.83, -4.71 81.51, -0.21 96.31" stroke="#1e1e1e" stroke-width="1" fill="none"></path></g><g transform="translate(1011.2582060361003 204.5) rotate(0 0.7420752838504541 49.66472221211231)"><path d="M12.94 68.19 C8.45 78.46, 5.17 85.83, -1.52 97.47 M10.23 68.47 C8.68 76.04, 5.65 81.67, -0.21 96.31" stroke="#1e1e1e" stroke-width="1" fill="none"></path></g></g><mask id="mask-vmlwPrD9_4FaVW-qQMb1S"><rect x="0" y="0" fill="#fff" width="1112.9443562852277" height="402.82310853113756"></rect><rect x="1004.4512810652966" y="241.16155426556878" fill="#000" width="15.300000190734863" height="25" opacity="1"></rect></mask><g transform="translate(1004.4512810652968 241.16155426556872) rotate(0 7.549000254654175 13.003167946543527)"><text x="7.650000095367432" y="0" font-family="Virgil, Segoe UI Emoji" font-size="20px" fill="#1e1e1e" text-anchor="middle" style="white-space: pre;" direction="ltr" dominant-baseline="text-before-edge">8</text></g><g stroke-linecap="round"><g transform="translate(313 420.5) rotate(0 424.80119169317186 -0.8758007095414655)"><path d="M1.19 -0.02 C142.69 -0.18, 707.02 -1.74, 848.41 -1.73" stroke="#1e1e1e" stroke-width="1.5" fill="none" stroke-dasharray="1.5 7"></path></g></g><mask></mask><g transform="translate(322 429.5) rotate(0 116.55000305175781 12.5)"><text x="0" y="0" font-family="Virgil, Segoe UI Emoji" font-size="20px" fill="#1e1e1e" text-anchor="start" style="white-space: pre;" direction="ltr" dominant-baseline="text-before-edge">Reviewer Authentication</text></g></svg>
