<svg width="512" height="512" viewBox="0 0 512 512" fill="none" xmlns="http://www.w3.org/2000/svg">
<rect width="512" height="512" fill="#D9D9D9"/>
<path d="M198.233 186.545C196.597 172.727 189.96 162 178.324 154.364C166.688 146.727 152.415 142.909 135.506 142.909C123.142 142.909 112.324 144.909 103.051 148.909C93.8693 152.909 86.6875 158.409 81.5057 165.409C76.4148 172.409 73.8693 180.364 73.8693 189.273C73.8693 196.727 75.642 203.136 79.1875 208.5C82.8239 213.773 87.4602 218.182 93.0966 221.727C98.733 225.182 104.642 228.045 110.824 230.318C117.006 232.5 122.688 234.273 127.869 235.636L156.233 243.273C163.506 245.182 171.597 247.818 180.506 251.182C189.506 254.545 198.097 259.136 206.278 264.955C214.551 270.682 221.369 278.045 226.733 287.045C232.097 296.045 234.778 307.091 234.778 320.182C234.778 335.273 230.824 348.909 222.915 361.091C215.097 373.273 203.642 382.955 188.551 390.136C173.551 397.318 155.324 400.909 133.869 400.909C113.869 400.909 96.5511 397.682 81.9148 391.227C67.3693 384.773 55.9148 375.773 47.5511 364.227C39.2784 352.682 34.5966 339.273 33.5057 324H68.4148C69.3239 334.545 72.8693 343.273 79.0511 350.182C85.3239 357 93.233 362.091 102.778 365.455C112.415 368.727 122.778 370.364 133.869 370.364C146.778 370.364 158.369 368.273 168.642 364.091C178.915 359.818 187.051 353.909 193.051 346.364C199.051 338.727 202.051 329.818 202.051 319.636C202.051 310.364 199.46 302.818 194.278 297C189.097 291.182 182.278 286.455 173.824 282.818C165.369 279.182 156.233 276 146.415 273.273L112.051 263.455C90.233 257.182 72.9602 248.227 60.233 236.591C47.5057 224.955 41.142 209.727 41.142 190.909C41.142 175.273 45.3693 161.636 53.8239 150C62.3693 138.273 73.8239 129.182 88.1875 122.727C102.642 116.182 118.778 112.909 136.597 112.909C154.597 112.909 170.597 116.136 184.597 122.591C198.597 128.955 209.688 137.682 217.869 148.773C226.142 159.864 230.506 172.455 230.96 186.545H198.233ZM290.381 396V116.727H384.744C406.653 116.727 424.563 120.682 438.472 128.591C452.472 136.409 462.835 147 469.562 160.364C476.29 173.727 479.653 188.636 479.653 205.091C479.653 221.545 476.29 236.5 469.562 249.955C462.926 263.409 452.653 274.136 438.744 282.136C424.835 290.045 407.017 294 385.29 294H317.653V264H384.199C399.199 264 411.244 261.409 420.335 256.227C429.426 251.045 436.017 244.045 440.108 235.227C444.29 226.318 446.381 216.273 446.381 205.091C446.381 193.909 444.29 183.909 440.108 175.091C436.017 166.273 429.381 159.364 420.199 154.364C411.017 149.273 398.835 146.727 383.653 146.727H324.199V396H290.381Z" fill="#1976D2"/>
</svg>
